<svg width="30" height="30" viewBox="0 0 30 30" fill="none" xmlns="http://www.w3.org/2000/svg">
<g clip-path="url(#clip0_346_1541)">
<path d="M17.5294 1C19.1675 1 20.7385 1.63605 21.8968 2.76823C23.0552 3.90042 23.7059 5.43598 23.7059 7.03713C23.7059 8.63828 23.0552 10.1738 21.8968 11.306C20.7385 12.4382 19.1675 13.0743 17.5294 13.0743C15.8913 13.0743 14.3203 12.4382 13.162 11.306C12.0037 10.1738 11.353 8.63828 11.353 7.03713C11.353 5.43598 12.0037 3.90042 13.162 2.76823C14.3203 1.63605 15.8913 1 17.5294 1ZM6.05884 22.9924C6.05884 19.4219 11.1941 16.524 17.5294 16.524C23.8647 16.524 29 19.4219 29 22.9924V26.011H6.05884V22.9924Z" fill="#353537"/>
<path d="M6.70588 23.4455V28.0001C6.70588 29.1047 7.60131 30.0001 8.70588 30.0001H8.94118C10.0457 30.0001 10.9412 29.1047 10.9412 28.0001L10.9412 23.4455H15.6471C16.7516 23.4455 17.6471 22.5501 17.6471 21.4455V21.2607C17.6471 20.1561 16.7516 19.2607 15.6471 19.2607L10.9412 19.2607V14.7061C10.9412 13.6015 10.0457 12.7061 8.94118 12.7061H8.70588C7.60131 12.7061 6.70588 13.6015 6.70588 14.7061L6.70588 19.2607H2C0.895431 19.2607 0 20.1561 0 21.2607V21.4455C0 22.5501 0.895429 23.4455 2 23.4455L6.70588 23.4455Z" fill="#353537" stroke="#EFEFEF" stroke-width="2"/>
</g>
<defs>
<clipPath id="clip0_346_1541">
<rect width="30" height="30" fill="white"/>
</clipPath>
</defs>
</svg>
