<svg width="30" height="30" viewBox="0 0 30 30" fill="none" xmlns="http://www.w3.org/2000/svg">
<path d="M15 6C16.083 6 17.1216 6.43021 17.8874 7.19598C18.6531 7.96175 19.0833 9.00037 19.0833 10.0833C19.0833 11.1663 18.6531 12.2049 17.8874 12.9707C17.1216 13.7365 16.083 14.1667 15 14.1667C13.917 14.1667 12.8784 13.7365 12.1126 12.9707C11.3469 12.2049 10.9167 11.1663 10.9167 10.0833C10.9167 9.00037 11.3469 7.96175 12.1126 7.19598C12.8784 6.43021 13.917 6 15 6ZM6.83333 8.91667C7.48667 8.91667 8.09333 9.09167 8.61833 9.40667C8.44333 11.075 8.93333 12.7317 9.93667 14.0267C9.35333 15.1467 8.18667 15.9167 6.83333 15.9167C5.90508 15.9167 5.01484 15.5479 4.35846 14.8915C3.70208 14.2352 3.33333 13.3449 3.33333 12.4167C3.33333 11.4884 3.70208 10.5982 4.35846 9.94179C5.01484 9.28542 5.90508 8.91667 6.83333 8.91667ZM23.1667 8.91667C24.0949 8.91667 24.9852 9.28542 25.6415 9.94179C26.2979 10.5982 26.6667 11.4884 26.6667 12.4167C26.6667 13.3449 26.2979 14.2352 25.6415 14.8915C24.9852 15.5479 24.0949 15.9167 23.1667 15.9167C21.8133 15.9167 20.6467 15.1467 20.0633 14.0267C21.0805 12.7135 21.5527 11.0589 21.3817 9.40667C21.9067 9.09167 22.5133 8.91667 23.1667 8.91667ZM7.41667 20.875C7.41667 18.46 10.8117 16.5 15 16.5C19.1883 16.5 22.5833 18.46 22.5833 20.875V22.9167H7.41667V20.875ZM1 22.9167V21.1667C1 19.545 3.205 18.18 6.19167 17.7833C5.50333 18.5767 5.08333 19.6733 5.08333 20.875V22.9167H1ZM29 22.9167H24.9167V20.875C24.9167 19.6733 24.4967 18.5767 23.8083 17.7833C26.795 18.18 29 19.545 29 21.1667V22.9167Z" fill="#353537"/>
</svg>
