<svg width="60" height="60" viewBox="0 0 60 60" fill="none" xmlns="http://www.w3.org/2000/svg">
<rect width="60" height="60" fill="#353537"/>
<path d="M43.127 27.9117L43.1175 27.9067L17.9642 15.1318C17.7526 15.0233 17.5224 14.9808 17.2941 15.008C17.0659 15.0352 16.8466 15.1312 16.6561 15.2875C16.4548 15.449 16.2894 15.6693 16.1749 15.9285C16.0604 16.1877 16.0003 16.4777 16 16.7724V24.9426C16.0001 25.3455 16.115 25.7357 16.3249 26.046C16.5347 26.3563 16.8264 26.5672 17.1497 26.6424L30.8683 29.7486C30.9222 29.7611 30.9709 29.7962 31.0059 29.848C31.0409 29.8997 31.06 29.9648 31.06 30.032C31.06 30.0992 31.0409 30.1642 31.0059 30.216C30.9709 30.2677 30.9222 30.3029 30.8683 30.3154L17.1502 33.4215C16.8271 33.4965 16.5354 33.7072 16.3255 34.0172C16.1155 34.3272 16.0004 34.7171 16 35.1199V43.2915C15.9998 43.5729 16.0567 43.85 16.1656 44.0978C16.2745 44.3457 16.4319 44.5566 16.6237 44.7115C16.8545 44.8993 17.1253 44.9996 17.4023 45C17.5949 44.9998 17.7855 44.9525 17.963 44.8608L43.1158 32.1587L43.127 32.1522C43.4655 31.9741 43.754 31.6783 43.9567 31.3014C44.1594 30.9246 44.2675 30.4832 44.2675 30.032C44.2675 29.5807 44.1594 29.1394 43.9567 28.7625C43.754 28.3857 43.4655 28.0899 43.127 27.9117Z" fill="#EFEFEF"/>
</svg>
