<svg width="30" height="30" viewBox="0 0 30 30" fill="none" xmlns="http://www.w3.org/2000/svg">
<path d="M25.1486 22.7714C25.3052 22.9275 25.4295 23.1129 25.5143 23.3171C25.5991 23.5214 25.6427 23.7403 25.6427 23.9614C25.6427 24.1825 25.5991 24.4014 25.5143 24.6057C25.4295 24.8099 25.3052 24.9953 25.1486 25.1514C24.9904 25.3082 21.2286 29.0028 15 29.0028C10.2806 29.0028 6.691 26.5584 4.36 24.2624V26.2C4.36 26.6456 4.183 27.0729 3.86794 27.3879C3.55288 27.703 3.12556 27.88 2.68 27.88C2.23444 27.88 1.80712 27.703 1.49206 27.3879C1.177 27.0729 1 26.6456 1 26.2V19.48C1 19.0344 1.177 18.6071 1.49206 18.2921C1.80712 17.977 2.23444 17.8 2.68 17.8H9.4C9.84556 17.8 10.2729 17.977 10.5879 18.2921C10.903 18.6071 11.08 19.0344 11.08 19.48C11.08 19.9256 10.903 20.3529 10.5879 20.6679C10.2729 20.983 9.84556 21.16 9.4 21.16H6.0568C7.8908 23.1648 10.968 25.64 15 25.64C19.8482 25.64 22.7434 22.8008 22.7714 22.7714C22.9274 22.6152 23.1127 22.4913 23.3167 22.4067C23.5206 22.3222 23.7392 22.2787 23.96 22.2787C24.1808 22.2787 24.3994 22.3222 24.6033 22.4067C24.8073 22.4913 24.9926 22.6152 25.1486 22.7714ZM27.32 2.12C26.8744 2.12 26.4471 2.297 26.1321 2.61206C25.817 2.92712 25.64 3.35444 25.64 3.8V5.7404C23.309 3.4444 19.7194 1 15 1C8.7756 1 5.0096 4.6946 4.8514 4.8514C4.53579 5.16701 4.35849 5.59506 4.35849 6.0414C4.35849 6.48774 4.53579 6.91579 4.8514 7.2314C5.16701 7.54701 5.59506 7.72431 6.0414 7.72431C6.48774 7.72431 6.91579 7.54701 7.2314 7.2314C7.2566 7.1992 10.1518 4.36 15 4.36C19.032 4.36 22.1092 6.8352 23.9432 8.84H20.6C20.1544 8.84 19.7271 9.017 19.4121 9.33206C19.097 9.64712 18.92 10.0744 18.92 10.52C18.92 10.9656 19.097 11.3929 19.4121 11.7079C19.7271 12.023 20.1544 12.2 20.6 12.2H27.32C27.7656 12.2 28.1929 12.023 28.5079 11.7079C28.823 11.3929 29 10.9656 29 10.52V3.8C29 3.35444 28.823 2.92712 28.5079 2.61206C28.1929 2.297 27.7656 2.12 27.32 2.12Z" fill="#EFEFEF"/>
</svg>
